<svg xmlns="http://www.w3.org/2000/svg" viewBox="0 0 1023.43 666.73"><defs><style>.cls-1{fill:#231815;}</style></defs><g id="レイヤー_2" data-name="レイヤー 2"><g id="レイヤー_1-2" data-name="レイヤー 1"><path class="cls-1" d="M21.72,296.25q2.67,22.17,5.35,44.33.43,3.57,1.16,7.27a20.07,20.07,0,0,0,2.45,6.56,11.51,11.51,0,0,0,4.9,4.4c2.12,1,5,1.33,8.52.91s6.24-1.37,8-2.85a11.89,11.89,0,0,0,3.75-5.42,19.11,19.11,0,0,0,.92-6.95q-.15-3.76-.55-7.34l-5-44.37c8.65-1,13-1.46,21.63-2.39Q75.4,314.06,78,337.71c1.23,9.76.44,20.77-5.76,28.79-5.52,7.13-17.86,10.88-25.91,11.82s-20.94.15-28-5.5C10.36,366.47,7,355.94,6,346.15L0,298.93C8.68,297.84,13,297.3,21.72,296.25Z"/><path class="cls-1" d="M99.93,370.1l-8.46-81.68c8.71-.9,13.06-1.33,21.76-2.19q22.45,23,44.61,46.27-2.19-25-4.4-50c8.66-.76,13-1.13,21.66-1.85q3.39,40.92,6.77,81.84c-8.49.7-12.73,1.06-21.23,1.81q-22-23.3-44.29-46.3,2.45,25,4.9,50C112.72,368.79,108.45,369.22,99.93,370.1Z"/><path class="cls-1" d="M215.57,277.49q3,41,6,81.9c-8.54.63-12.81.95-21.35,1.61l-6.39-81.86C202.49,278.46,206.85,278.13,215.57,277.49Z"/><path class="cls-1" d="M249.16,275.19q11.7,24.29,23.22,48.65,8.6-25.56,17.4-51.06c9.48-.52,14.22-.76,23.71-1.23q-15.64,41.83-30.7,83.86c-6.8.39-10.21.59-17,1q-19.87-40-40.31-79.63C234.94,276.12,239.68,275.8,249.16,275.19Z"/><path class="cls-1" d="M371.79,287.23c-10.33.35-15.5.55-25.83,1,.22,5.48.33,8.23.56,13.71,9.72-.4,14.58-.58,24.3-.92.25,7.23.38,10.84.63,18.07-9.68.34-14.52.52-24.2.91.23,5.66.35,8.49.58,14.15,10.22-.42,15.33-.61,25.54-1,.25,7.23.38,10.84.63,18.07q-23.42.79-46.82,1.88l-3.78-82q23.88-1.09,47.77-1.92C371.42,276.39,371.54,280,371.79,287.23Z"/><path class="cls-1" d="M458.92,349.2c-10.65.15-16,.23-26.64.44q-10.53-15.6-21.2-31.11.39,15.78.79,31.57c-8.56.22-12.84.33-21.4.59L388,268.61q17-.48,34-.88a33.5,33.5,0,0,1,12.29,1.76,23.68,23.68,0,0,1,8.73,5.34,23,23,0,0,1,5.24,8,27.61,27.61,0,0,1,1.87,9.77q.14,9.38-4.35,15.27T432.38,316Q445.72,332.54,458.92,349.2Zm-48.19-44.5,4.09-.1q6.4-.15,9.77-2.83a9.95,9.95,0,0,0-.32-15q-3.5-2.53-9.94-2.39l-4.1.1Z"/><path class="cls-1" d="M514.21,287.76a26.83,26.83,0,0,0-7.1-4.19,18.9,18.9,0,0,0-6.89-1.35,11.26,11.26,0,0,0-6.87,2,6,6,0,0,0-2.63,5.13,5,5,0,0,0,1.34,3.59,11.54,11.54,0,0,0,3.5,2.43,30.27,30.27,0,0,0,4.87,1.78q2.71.75,5.37,1.62,10.62,3.48,15.51,9.32t4.86,15.21A29.48,29.48,0,0,1,524,334.72a24.07,24.07,0,0,1-6.25,8.75,29.06,29.06,0,0,1-10.05,5.66,45.4,45.4,0,0,1-13.48,2.05c-9.38.2-21.35-3.39-29-9,3.6-6.93,5.41-10.39,9-17.31a37.46,37.46,0,0,0,9.6,6.24,23.24,23.24,0,0,0,9.33,2c3.51,0,6.13-.82,7.84-2.43a7.4,7.4,0,0,0,1.9-8.66,7,7,0,0,0-2.21-2.5,17.77,17.77,0,0,0-4-2.11c-1.65-.65-3.68-1.41-6-2.15-2.74-.88-5.54-1.8-8.22-2.84a25.91,25.91,0,0,1-7.2-4.13,19.58,19.58,0,0,1-5.14-6.54A22.94,22.94,0,0,1,468,291.7,28.58,28.58,0,0,1,470,280.62a24.22,24.22,0,0,1,5.7-8.55,25.86,25.86,0,0,1,9.08-5.57,35.15,35.15,0,0,1,12.09-2,53.36,53.36,0,0,1,13.05,1.66,57.42,57.42,0,0,1,13,5C519.41,277.77,517.67,281.1,514.21,287.76Z"/><path class="cls-1" d="M591.31,335.38q-15.33-.31-30.67-.49c-2,5.68-3.06,8.52-5.09,14.21-9.13-.1-13.69-.14-22.82-.19q15.94-41,32.41-81.82c9.54.12,14.3.2,23.84.38q15.15,41.32,29.78,82.82c-9.13-.25-13.69-.35-22.81-.55C594.1,344,593.17,341.12,591.31,335.38ZM585.92,319q-4.59-13.76-9.25-27.49-5.08,13.57-10.12,27.18C574.3,318.84,578.17,318.9,585.92,319Z"/><path class="cls-1" d="M653.48,269.2l-2.22,64c10.3.36,15.46.56,25.76,1-.3,7.22-.45,10.84-.74,18.06q-23.52-1-47-1.66,1.2-41,2.41-82.08C640.38,268.76,644.75,268.9,653.48,269.2Z"/><path class="cls-1" d="M789.51,303.71c-4.59-6.35-10.6-9.78-18-10.25a23,23,0,0,0-9.13,1.17,21.31,21.31,0,0,0-12.55,11.13,22.87,22.87,0,0,0-2.23,8.82,23.57,23.57,0,0,0,1.17,9.12,22.14,22.14,0,0,0,19.73,15q10.29.66,19.1-7.46c-.69,10.08-1,15.12-1.73,25.21l-2.23.61a65.42,65.42,0,0,1-9.33,1.94,44.4,44.4,0,0,1-8.44.27,43.58,43.58,0,0,1-29.33-14,45.38,45.38,0,0,1-8.83-14.34,42.11,42.11,0,0,1-2.7-17.65,41.36,41.36,0,0,1,4.52-17.15A42.74,42.74,0,0,1,739.94,283a44,44,0,0,1,14.57-8.1,44.51,44.51,0,0,1,17-2.17,46.65,46.65,0,0,1,9.78,1.67,61,61,0,0,1,10,3.89Z"/><path class="cls-1" d="M828.09,279q-1.73,22.26-3.46,44.51-.27,3.59-.29,7.36a19.69,19.69,0,0,0,1.11,6.91,11.4,11.4,0,0,0,3.94,5.28c1.87,1.42,4.58,2.28,8.16,2.57s6.38-.12,8.42-1.22a11.9,11.9,0,0,0,4.73-4.57,19.4,19.4,0,0,0,2.28-6.64c.39-2.49.69-4.92.89-7.31q1.89-22.25,3.79-44.49c8.66.74,13,1.12,21.66,1.9q-2.13,23.7-4.28,47.4c-.71,9.81-3.64,20.45-11.3,27.09-6.81,5.91-19.64,7.17-27.71,6.51s-20.55-4-26.34-10.91c-6.52-7.78-7.71-18.76-6.82-28.56q1.71-23.73,3.43-47.47C815,278,819.38,278.34,828.09,279Z"/><path class="cls-1" d="M898,285.05q16.21,1.56,32.42,3.21,11.54,1.2,17,7.26t4.28,16.24a20.92,20.92,0,0,1-3.37,10,18.94,18.94,0,0,1-7.61,6.13,26.46,26.46,0,0,1,7.57,3.5,17,17,0,0,1,4.79,5,16.5,16.5,0,0,1,2.26,6.17,26.54,26.54,0,0,1,.1,7,24.49,24.49,0,0,1-3.14,9.95,20.94,20.94,0,0,1-6.49,6.84,24.41,24.41,0,0,1-9.36,3.6,42.75,42.75,0,0,1-11.9.28q-17.13-1.75-34.27-3.41Zm18.54,34.2,4,.4q10.13,1,11-6.86c.55-5.27-2.57-8.27-9.35-9l-4-.41C917.47,309.76,917.16,312.93,916.52,319.25Zm-3.33,33.16,4.7.48q8.07.83,11.79-.87a8,8,0,0,0,1.38-13.21q-3.28-2.43-11.41-3.26l-4.72-.48C914.23,342,913.89,345.48,913.19,352.41Z"/><path class="cls-1" d="M1021.16,316.87c-10.28-1.3-15.42-1.93-25.7-3.16-.66,5.45-1,8.17-1.63,13.62,9.67,1.16,14.51,1.75,24.18,3l-2.26,17.94c-9.63-1.21-14.44-1.8-24.08-3-.67,5.63-1,8.44-1.68,14.06,10.17,1.22,15.25,1.84,25.41,3.13-.91,7.17-1.36,10.76-2.27,17.93q-23.26-2.94-46.58-5.61l9.33-81.58q23.79,2.73,47.55,5.72C1022.52,306.11,1022.07,309.7,1021.16,316.87Z"/><path class="cls-1" d="M363.31,386.31c7.51-.47,11.26-.69,18.78-1.1a32.72,32.72,0,0,1,7.06.33,16.72,16.72,0,0,1,5.94,2,11.8,11.8,0,0,1,4.19,4.23,15,15,0,0,1,1.8,6.88,13.92,13.92,0,0,1-2.25,8.68,12,12,0,0,1-7.51,4.85c5.29,7.77,7.92,11.67,13.13,19.47-5,.23-7.54.36-12.57.62-4.37-7.39-6.57-11.08-11-18.45l-5.22.3c.45,7.59.67,11.39,1.11,19-4.19.24-6.29.37-10.48.63Q364.81,410.05,363.31,386.31Zm11.84,19,6.25-.36c1,0,2-.14,3-.27a9.61,9.61,0,0,0,2.86-.76,5,5,0,0,0,2.06-1.69,4.72,4.72,0,0,0,.69-3.06,4.87,4.87,0,0,0-.9-2.84,5,5,0,0,0-2-1.55,8.49,8.49,0,0,0-2.7-.63,22.46,22.46,0,0,0-2.95,0l-7,.4C374.77,398.84,374.89,401,375.15,405.32Z"/><path class="cls-1" d="M415,383.63q16.5-.64,33-1.12c.1,3.87.15,5.8.26,9.67-8.89.24-13.33.38-22.21.7.13,3.55.2,5.32.32,8.86,8.36-.3,12.54-.43,20.9-.66.11,3.87.16,5.8.27,9.67-8.33.23-12.49.36-20.81.66l.35,9.67c9.26-.34,13.89-.48,23.15-.73.11,3.87.16,5.8.26,9.67q-16.77.5-33.54,1.13Z"/><path class="cls-1" d="M488.8,393.38a7.49,7.49,0,0,0-3.54-2.34,12.93,12.93,0,0,0-4.22-.73,10.51,10.51,0,0,0-2.38.31,9.39,9.39,0,0,0-2.32.87,5,5,0,0,0-1.75,1.54,4.13,4.13,0,0,0,1,5.56,16,16,0,0,0,4.15,1.89q2.5.76,5.37,1.54a22.39,22.39,0,0,1,5.36,2.23,12.52,12.52,0,0,1,4.14,3.93,12,12,0,0,1,1.67,6.64,15.15,15.15,0,0,1-1.44,6.93,14.14,14.14,0,0,1-4,4.94,17.37,17.37,0,0,1-5.82,2.95,26.28,26.28,0,0,1-7,1,26,26,0,0,1-8.62-1.27A22,22,0,0,1,462,425c2.92-3.34,4.39-5,7.33-8.35a11,11,0,0,0,4.15,3.26,11.91,11.91,0,0,0,5.11,1.1,12.37,12.37,0,0,0,2.6-.34,8.82,8.82,0,0,0,2.35-.94,5.11,5.11,0,0,0,1.67-1.56,3.85,3.85,0,0,0,.61-2.23,4,4,0,0,0-1.69-3.37,15.23,15.23,0,0,0-4.2-2.07c-1.67-.55-3.5-1.11-5.45-1.66a24.5,24.5,0,0,1-5.47-2.26,13.14,13.14,0,0,1-4.25-3.81,11.06,11.06,0,0,1-1.8-6.35,14.08,14.08,0,0,1,1.4-6.75,14.52,14.52,0,0,1,4-4.91,17.82,17.82,0,0,1,5.88-3,24.63,24.63,0,0,1,6.92-1.07,27.23,27.23,0,0,1,8,1.05,18.47,18.47,0,0,1,7,3.77Z"/><path class="cls-1" d="M508.35,405.43a26.61,26.61,0,0,1,1.93-10.34,22.51,22.51,0,0,1,5.44-7.89,23.81,23.81,0,0,1,8.31-5,32,32,0,0,1,21,.2,23.88,23.88,0,0,1,8.22,5.14,22.4,22.4,0,0,1,5.28,8,26.35,26.35,0,0,1,1.73,10.38,26.71,26.71,0,0,1-2.14,10.31A22.94,22.94,0,0,1,552.6,424a24,24,0,0,1-8.23,4.88,31.64,31.64,0,0,1-20.58-.2,23.77,23.77,0,0,1-8.13-5,23,23,0,0,1-5.37-7.9A27,27,0,0,1,508.35,405.43Zm11,0a17.08,17.08,0,0,0,1,6.15,14.22,14.22,0,0,0,3,4.86,13.75,13.75,0,0,0,4.68,3.21,15.6,15.6,0,0,0,6.09,1.2,15.83,15.83,0,0,0,6.13-1.08,13.85,13.85,0,0,0,4.74-3.13,14.14,14.14,0,0,0,3.08-4.79,17.37,17.37,0,0,0,1.15-6.13,17.56,17.56,0,0,0-1-6.13,13.65,13.65,0,0,0-7.67-8.17,17.18,17.18,0,0,0-12.36-.12,13.7,13.7,0,0,0-4.77,3.17,13.91,13.91,0,0,0-3.06,4.85A17.17,17.17,0,0,0,519.36,405.44Z"/><path class="cls-1" d="M574.88,382.49c7.52.2,11.28.32,18.8.58a33.78,33.78,0,0,1,7,1,16.65,16.65,0,0,1,5.74,2.58,11.67,11.67,0,0,1,3.78,4.59,14.64,14.64,0,0,1,1.18,7,13.88,13.88,0,0,1-3,8.45,12,12,0,0,1-7.92,4.15c4.58,8.22,6.85,12.33,11.34,20.57-5-.22-7.54-.32-12.57-.51-3.69-7.75-5.56-11.62-9.31-19.36l-5.22-.17c-.24,7.6-.36,11.4-.59,19-4.2-.14-6.3-.2-10.49-.31Q574.24,406.27,574.88,382.49Zm10.09,20,6.26.2c.95,0,2,0,3,0a9.73,9.73,0,0,0,2.91-.5,5.19,5.19,0,0,0,2.21-1.5,4.78,4.78,0,0,0,1-3,4.58,4.58,0,0,0-2.5-4.63,8.39,8.39,0,0,0-2.63-.87,21.57,21.57,0,0,0-2.93-.3l-7-.23C585.17,396,585.1,398.15,585,402.48Z"/><path class="cls-1" d="M635.1,394.16c-5.52-.29-8.28-.43-13.8-.69.17-3.7.26-5.55.43-9.26q19.2.9,38.39,2.1c-.23,3.7-.35,5.55-.58,9.26-5.52-.35-8.27-.52-13.79-.83q-1.1,19.11-2.18,38.23c-4.19-.24-6.29-.35-10.48-.57Z"/><path d="M810.68,481c-54.45,110-167.87,185.72-299,185.72S267.19,591.06,212.75,481c57.08,98.59,169.55,165.65,299,165.65S753.6,579.6,810.68,481Z"/><path d="M212.77,185.68C267.23,75.65,380.64,0,511.71,0S756.2,75.65,810.65,185.68C753.57,87.11,641.11,20.07,511.71,20.07S269.85,87.11,212.77,185.68Z"/><path class="cls-1" d="M770.58,127.76c-13.88-27.29-42.93-38.12-66.82-53.45-.81,2-3.58,7.4-4.06,8.58-5.69-.66-9.71-8-16.59-3l5.81,4.22c-8.72,2.53-15.89,9.87-24.51.77-1.5-1.58-6.37,0-9.65.37-.15,0-.51,3.33.21,4.5a54.17,54.17,0,0,0,5.22,6.48l-1.85,5.89-15.1,15.8c-3.77-7.41-6.82-13.9-10.33-20.12-2.3-4.09-.39-6,2.77-8.06a117.49,117.49,0,0,0,11.77-8.48c1.48-1.24,2-3.59,2.26-5.9-3.61,3.23-10.16,3.8-12.36-.1-2.72-4.81-6.59-2.58-10-2.51-.45,0-.83,3.45-1.62,7-3.5-1.07-8.09-2.47-12.68-3.91-.41-.12-.77-.68-1.14-.66-9.53.45-16.48-7.26-25.56-8a14.27,14.27,0,0,0-7,1.19c-8.06,3.82-15.95,8-24,12.08,2,1.87,3.55,3.76,5.52,5,1.53,1,3.82,1.81,5.39,1.36,6.76-1.93,11.08-.24,14.82,7a28.72,28.72,0,0,1,1.64-4,33.59,33.59,0,0,1,2.8-3.42l9.49,22.58-7.21,2.78c1.33,3,2.66,6,4,9.15l-8.66.76V95.84l-1.86-.38C580.17,96.64,578,98,578.16,99c1.53,11-6.91,16.11-13.39,21.69s-14,9.44-21.3,13.68c-1.5.87-4.1.38-6-.11-6.68-1.67-11.29.61-15,6.66-1.35,2.18-4.3,3.5-6.73,4.84a56.17,56.17,0,0,1-7,2.74c5.08,7,13.59,12.38,9,22.11-2.05,4.33-13.24,6.11-18.91,3.76,1-5,2.06-10.06,3.26-15.95l-7.89-2.13c.84-2.53,1.73-5.22,2.69-8.14-7.86-6.25-14.5,3.4-23.43,3.24l8.34-11.65-25.45,9.92,7,6,17,1.24.84,2.12a45.23,45.23,0,0,1-4,2.14c-4.41,1.81-8.94,3.32-13.2,5.41-1,.5-2.07,3.25-1.58,4.16,2.95,5.51,6.57,10.68,9.35,16.27.47,1-1.75,4.59-3.19,4.91-3.43.74-7.42-.64-10.65.44a71.16,71.16,0,0,0-16.33,7.77c-5,3.26-8.94,3.47-13.91.18a66,66,0,0,0-36.19-10.83c-12-.18-24.26-1.2-34.88,5.66-6.28,4-11.9,9.2-17.4,14.31-4.09,3.79-7.43,4.27-11.4.09a28.43,28.43,0,0,0-6.73-5.35c-7-3.85-10.17-10-11.31-17.54a11.64,11.64,0,0,0-1.57-3.5c-2.29-4.2-4.62-8.38-6.82-12.36-4.55,1.15-10,2.4-15.37,3.94a10.94,10.94,0,0,0-5,2.7c-6.31,6.91-11.7,14.87-18.84,20.72-3.68,3-10.35,2.37-15.65,3.45-1.92.38-4.45.34-5.59,1.54-5,5.25-9.72.86-12.93-1.3-2.25-1.52-2.23-7.09-2.34-10.88-.07-2.7,1.32-5.44,2.56-10-4.32,2.25-7.91,3.25-10.22,5.54-2.9,2.87-2.27-3.83-5.13-.79,19.38-36.09,55.68-85.62,101.84-119.81C360.39,32,412.22,12.18,468.78,5.13,559.24-6.15,638.6,16,711.73,70.28M534.08,20.18l-1.22,1.92c1.37,2.09,2.26,6.93,4.19,8a126.29,126.29,0,0,0,15.4,7.08,21.19,21.19,0,0,0,6.36,1.25c6,.43,12.24-.19,18,1.18,10.51,2.49,20.57,7.21,31.15,9,9.64,1.59,16.68,11.28,27.57,8a11.79,11.79,0,0,1,6.12-.24c10.77,2.84,12.41-1,22.36-4C623.25,32.23,578,20.18,534.08,20.18Z"/><path class="cls-1" d="M459.58,515.38c2.6.65,5.83,6.13,6.21-2.06.16-3.54,6.11-7.29,10.06-10,3.76-2.62,8.69-6.37,11.06,2.1.28,1,3.44,1.81,5.16,1.63,1.28-.13,2.9-1.77,3.46-3.12,2.57-6.2,5.88-11.12,13.48-11.65,1.55-.11,2.94-2.36,5.09-4.21l21.19,7c-1.58,2.41-3.38,5.62-5.64,8.46-2.5,3.13-2.22,5,1.16,7.44,5.59,4,10.47,9.07,16.23,12.81,1.53,1,6.83-.46,7.51-2,2.57-5.94,3.72-12.48,5.84-18.64a60.53,60.53,0,0,1,7.48-14.72c1,4.84,1.9,9.73,3.23,14.49.46,1.69,2.06,3.05,3.11,4.59,1.22,1.78,3.07,3.45,3.45,5.41.9,4.53,1.76,9.26,1.39,13.81-.6,7.5,3.06,11.47,7.07,13,3.78,8.25,6.14,15.06,9.82,21.08,6.73,11,3,20.76-3.59,29.32-6,7.85-14.5,13.76-20.71,21.47C566.36,618,560,621.53,552.2,622.2c-5.83.51-11.83-.77-17.74-1.41a3.91,3.91,0,0,1-2.77-1.61c-2.88-6.5-5.56-13.1-8.33-19.74-1.93,1.27-4.78,3.17-7.67,5.09-7.17-12.47-17.15-16.85-30.62-13.08-6.18,1.73-12,4.72-18.07,6.87-1.82.65-4,.18-5.95.55-4.43.83-9.07,1.28-13.2,3C440,605,433.54,600.41,432,592.43c-1.66-8.59-5.81-16.71-8.89-25-1.84-5-4.2-9.81-5.45-14.92-1.82-7.38,5.61-16.63,14-18.31,4.95-1,10-1.76,14.81-3.11,6.16-1.7,10.4-5.5,11.47-12.21A14.28,14.28,0,0,1,459.58,515.38Z"/><path class="cls-1" d="M534.69,187.85c-.44-3.4-.74-5.68-1.07-8.22l-4.67.67c3,6.3-.54,13.42-8.56,15.34a45.65,45.65,0,0,0-.59-7.07c-.46-1.91-1.65-3.65-2.68-5.82,6.28-3.59,12.52-7.33,18.94-10.72,1.32-.69,3.3-.13,5-.13,2.91,0,6.24.91,8.64-.2,4.1-1.88,8.69-8,11.15-7.08,6.6,2.43,8.95-2,12.13-5,1.5-1.41,1.41-4.45,2.19-6.7.91-2.62,2-5.18,2.78-7.22l-5-6.68c3.84-2.37,6.82-4.23,10.18-6.31.1-2.05.23-4.72.35-7.28l18,9.08c.26-.5.52-1,.79-1.48.66,1.68,1.33,3.35,2.14,5.38l-12.19,3.14.29,1.55-12.25-4.57c2.29,4.68,4,7.65,5.23,10.78,1.8,4.4,2.67,8.25-2.08,12.24-2.35,2-2.74,6.76-3.24,10.39-.74,5.3-.41,5.06-5.72,4.41-2.2-.27-4.57,1-6.88,1.47-2.89.56-5.8,1-8.94,1.49L550.65,184l-2-4.76Z"/></g></g></svg>